# xmcd
#
# Track frame offsets: 
#        150
#        37081
#        65410
#        96404
#        129429
#
# Disc length: 2121 seconds
#
# Revision: 0
# Processed by: cddbd v1.5.2PL0 Copyright (c) Steve Scherf et al.
# Submitted via: ExactAudioCopy v0.95b4
#
DISCID=43084705
DTITLE=Wayne Shorter - BlueNote11
DYEAR=2012
DGENRE=Jazz
TTITLE0=Witch Hunt
TTITLE1=Tom Thumb
TTITLE2=Adam's Apple
TTITLE3=Night Dreamer
TTITLE4=Yes or No
EXTD=
EXTT0=
EXTT1=
EXTT2=
EXTT3=
EXTT4=
PLAYORDER=
